<?xml version="1.0" encoding="UTF-8" standalone="no"?>
<!-- Created with Inkscape (http://www.inkscape.org/) -->

<svg
   xmlns:dc="http://purl.org/dc/elements/1.1/"
   xmlns:cc="http://creativecommons.org/ns#"
   xmlns:rdf="http://www.w3.org/1999/02/22-rdf-syntax-ns#"
   xmlns:svg="http://www.w3.org/2000/svg"
   xmlns="http://www.w3.org/2000/svg"
   xmlns:sodipodi="http://sodipodi.sourceforge.net/DTD/sodipodi-0.dtd"
   xmlns:inkscape="http://www.inkscape.org/namespaces/inkscape"
   version="1.1"
   id="svg2"
   xml:space="preserve"
   width="1610.8545"
   height="573.72137"
   viewBox="0 0 1610.8544 573.72135"
   sodipodi:docname="taavettI logo.svg"
   inkscape:version="0.92.4 (5da689c313, 2019-01-14)"><metadata
     id="metadata8"><rdf:RDF><cc:Work
         rdf:about=""><dc:format>image/svg+xml</dc:format><dc:type
           rdf:resource="http://purl.org/dc/dcmitype/StillImage" /><dc:title></dc:title></cc:Work></rdf:RDF></metadata><defs
     id="defs6"><clipPath
   clipPathUnits="userSpaceOnUse"
   id="clipPath22"><path
     d="M 0,800 H 1280 V 0 H 0 Z"
     id="path20"
     inkscape:connector-curvature="0" /></clipPath><clipPath
   clipPathUnits="userSpaceOnUse"
   id="clipPath46"><path
     d="M 0,800 H 1280 V 0 H 0 Z"
     id="path44"
     inkscape:connector-curvature="0" /></clipPath>

</defs><sodipodi:namedview
     pagecolor="#ffffff"
     bordercolor="#666666"
     borderopacity="1"
     objecttolerance="10"
     gridtolerance="10"
     guidetolerance="10"
     inkscape:pageopacity="0"
     inkscape:pageshadow="2"
     inkscape:window-width="1366"
     inkscape:window-height="715"
     id="namedview4"
     showgrid="false"
     inkscape:zoom="0.37737912"
     inkscape:cx="719.53385"
     inkscape:cy="182.5094"
     inkscape:window-x="-8"
     inkscape:window-y="-8"
     inkscape:window-maximized="1"
     inkscape:current-layer="g10"
     fit-margin-top="50"
     fit-margin-left="50"
     fit-margin-right="50"
     fit-margin-bottom="50" /><g
     id="g10"
     inkscape:groupmode="layer"
     inkscape:label="taavettu logo"
     transform="matrix(1.3333333,0,0,-1.3333333,-64.69648,920.04189)">

<g
   id="g52"
   transform="matrix(0.90421276,0,0,1.0627718,1077.3566,189.58695)" />

<g
   id="g5243"
   transform="matrix(2.4453286,0,0,2.4453286,-309.00393,-230.35726)"><text
     transform="scale(1,-1)"
     id="text871"
     y="-361.05115"
     x="427.13113"
     style="font-style:normal;font-weight:normal;font-size:30px;line-height:1.25;font-family:sans-serif;letter-spacing:0px;word-spacing:0px;fill:#000000;fill-opacity:1;stroke:none;stroke-width:0.75"
     xml:space="preserve"><tspan
       style="stroke-width:0.75"
       y="-361.05115"
       x="427.13113"
       id="tspan869"
       sodipodi:role="line">       </tspan></text>
<text
     transform="scale(1,-1)"
     y="-225.78046"
     x="160.38022"
     id="text62"
     style="font-variant:normal;font-weight:500;font-stretch:normal;font-size:132.32539368px;font-family:'Cocogoose Classic Trial Medium';-inkscape-font-specification:CocogooseClassicTrial-Medium;writing-mode:lr-tb;fill:#000022;fill-opacity:1;fill-rule:nonzero;stroke:none"><tspan
       y="-225.78046"
       x="160.38022"
       style="font-style:normal;font-variant:normal;font-weight:normal;font-stretch:normal;font-family:'Futura Bk BT';-inkscape-font-specification:'Futura Bk BT';letter-spacing:0.75px;fill:#000022;fill-opacity:1"
       id="tspan60"
       sodipodi:role="line">Taavett</tspan></text>
<g
     transform="translate(-541.50631,231.86044)"
     id="g908"><g
       id="g48"
       transform="matrix(0.90421276,0,0,0.94700264,1146.0948,-16.10307)"
       style="fill:#000022;fill-opacity:1"><path
         d="m 0,0 h -9.584 c -12.427,0 -22.5,10.073 -22.5,22.5 v 64.83 c 0,12.427 10.073,22.5 22.5,22.5 H 0 c 12.427,0 22.5,-10.073 22.5,-22.5 V 22.5 C 22.5,10.073 12.427,0 0,0"
         style="fill:#000022;fill-opacity:1;fill-rule:nonzero;stroke:none"
         id="path50"
         inkscape:connector-curvature="0" /></g><g
       id="g871"
       transform="translate(70.306067,-136.87246)"
       style="fill:#ffffff;fill-opacity:1"><path
         inkscape:connector-curvature="0"
         id="path54"
         style="fill:#ffffff;fill-opacity:1;fill-rule:nonzero;stroke:none"
         d="m 0,0 c 0.322,-0.302 0.484,-0.733 0.484,-1.292 v -52.595 c 0,-0.559 -0.162,-0.991 -0.484,-1.292 -0.323,-0.301 -0.766,-0.452 -1.325,-0.452 h -10.467 c -1.163,0 -1.744,0.581 -1.744,1.744 v 52.595 c 0,1.163 0.581,1.744 1.744,1.744 H -1.325 C -0.766,0.452 -0.323,0.301 0,0"
         transform="matrix(0.90421277,0,0,1.0627718,1077.3566,189.58695)" /><circle
         r="6.7314324"
         cy="208.67433"
         cx="1071.4557"
         id="path866"
         style="opacity:1;fill:#ffffff;fill-opacity:1;stroke-width:1.76086962;stroke-linecap:round;stroke-linejoin:miter;stroke-miterlimit:10;stroke-dasharray:none;paint-order:markers fill stroke" /></g></g></g></g></svg>